<?xml version="1.0" encoding="utf-8"?>
<!-- Generator: Adobe Illustrator 17.0.0, SVG Export Plug-In . SVG Version: 6.00 Build 0)  -->
<!DOCTYPE svg PUBLIC "-//W3C//DTD SVG 1.1//EN" "http://www.w3.org/Graphics/SVG/1.1/DTD/svg11.dtd">
<svg version="1.1" id="レイヤー_1" xmlns="http://www.w3.org/2000/svg" xmlns:xlink="http://www.w3.org/1999/xlink" x="0px"
	 y="0px" width="595.28px" height="841.89px" viewBox="0 0 595.28 841.89" enable-background="new 0 0 595.28 841.89"
	 xml:space="preserve">
<rect x="68.354" y="271.934" fill="none" stroke="#000000" stroke-width="0.5" stroke-miterlimit="10" width="458.646" height="283.465"/>
<g>
	
		<line fill="none" stroke="#000000" stroke-width="0.5" stroke-miterlimit="10" x1="351.819" y1="271.934" x2="351.819" y2="555.398"/>
	<line fill="none" stroke="#000000" stroke-width="0.5" stroke-miterlimit="10" x1="351.819" y1="447.115" x2="527" y2="447.115"/>
	
		<line fill="none" stroke="#000000" stroke-width="0.5" stroke-miterlimit="10" x1="418.717" y1="447.115" x2="418.717" y2="555.398"/>
	
		<line fill="none" stroke="#000000" stroke-width="0.5" stroke-miterlimit="10" x1="351.819" y1="488.501" x2="418.717" y2="488.501"/>
	
		<line fill="none" stroke="#000000" stroke-width="0.5" stroke-miterlimit="10" x1="393.205" y1="488.501" x2="393.205" y2="447.115"/>
	
		<line fill="none" stroke="#000000" stroke-width="0.5" stroke-miterlimit="10" x1="393.205" y1="472.626" x2="418.717" y2="472.626"/>
</g>
<line fill="none" stroke="#000000" stroke-width="0.5" stroke-miterlimit="10" x1="402.842" y1="472.626" x2="402.842" y2="488.501"/>
<line fill="none" stroke="#000000" stroke-width="0.5" stroke-miterlimit="10" x1="393.205" y1="478.863" x2="402.842" y2="478.863"/>
<path fill="none" stroke="#00A0E9" stroke-width="0.5" stroke-miterlimit="10" d="M393.205,478.863c0,5.323,4.315,9.638,9.638,9.638
	c8.767,0,15.874-7.107,15.874-15.874c0-14.09-11.422-25.512-25.512-25.512c-22.857,0-41.386,18.529-41.386,41.386
	c0,36.947,29.951,66.898,66.898,66.898c59.803,0,108.283-48.48,108.283-108.283c0-96.75-78.431-175.181-175.181-175.181
	c-156.553,0-283.465,126.911-283.465,283.465"/>
</svg>
